<svg width="12" height="10" viewBox="0 0 12 10" fill="none" xmlns="http://www.w3.org/2000/svg">
<path d="M4.98245 8.6359L0.982452 2.2359C0.868922 2.05426 0.806085 1.84553 0.800462 1.6314C0.79484 1.41727 0.846638 1.20553 0.950478 1.01818C1.05432 0.830826 1.20642 0.674683 1.39098 0.565961C1.57554 0.457239 1.78585 0.399902 2.00005 0.399902H10.0001C10.2143 0.399902 10.4246 0.457239 10.6091 0.565961C10.7937 0.674683 10.9458 0.830826 11.0496 1.01818C11.1535 1.20553 11.2053 1.41727 11.1996 1.6314C11.194 1.84553 11.1312 2.05426 11.0177 2.2359L7.01765 8.6359C6.90978 8.80849 6.75979 8.95081 6.58178 9.04948C6.40376 9.14814 6.20358 9.19991 6.00005 9.19991C5.79652 9.19991 5.59634 9.14814 5.41833 9.04948C5.24031 8.95081 5.09032 8.80849 4.98245 8.6359Z" fill="#998866"/>
</svg>
