<svg width="12" height="16" viewBox="0 0 12 16" fill="none" xmlns="http://www.w3.org/2000/svg">
<path d="M1.152 15.4147C1.27332 15.4778 1.40954 15.5067 1.54604 15.4983C1.68253 15.4898 1.81414 15.4443 1.92675 15.3667L11.6768 8.61674C11.7764 8.54771 11.8578 8.45557 11.914 8.3482C11.9703 8.24084 11.9996 8.12144 11.9996 8.00024C11.9996 7.87903 11.9703 7.75964 11.914 7.65227C11.8578 7.5449 11.7764 7.45276 11.6768 7.38374L1.92675 0.633735C1.81423 0.55588 1.68256 0.510289 1.54599 0.5019C1.40941 0.49351 1.27315 0.522642 1.15195 0.58614C1.03074 0.649638 0.929222 0.745083 0.858373 0.86214C0.787523 0.979198 0.750046 1.11341 0.75 1.25024V14.7502C0.749977 14.8871 0.787427 15.0214 0.85829 15.1386C0.929154 15.2557 1.03073 15.3512 1.152 15.4147Z" fill="white"/>
</svg>
