<svg width="32" height="28" viewBox="0 0 32 28" fill="none" xmlns="http://www.w3.org/2000/svg">
<path d="M5.33333 0C5.97222 0 6.52222 0.447891 6.64444 1.06695L6.72778 1.75H30.1C31.2278 1.75 32.1278 2.85742 31.8111 3.97359L28.8111 14.4758C28.5944 15.2305 27.8944 15.75 27.1 15.75H9.48333L9.99444 18.375H27.1111C27.85 18.375 28.4444 18.9602 28.4444 19.6875C28.4444 20.4148 27.85 21 27.1111 21H8.83889C8.25 21 7.7 20.5516 7.57778 19.9336L4.23 2.625H1.33333C0.597222 2.625 0 2.03711 0 1.3125C0 0.587891 0.597222 0 1.33333 0H5.33333ZM7.11111 25.375C7.11111 23.9258 8.30556 22.75 9.77778 22.75C11.25 22.75 12.4444 23.9258 12.4444 25.375C12.4444 26.8242 11.25 28 9.77778 28C8.30556 28 7.11111 26.8242 7.11111 25.375ZM28.4444 25.375C28.4444 26.8242 27.25 28 25.7778 28C24.3056 28 23.1111 26.8242 23.1111 25.375C23.1111 23.9258 24.3056 22.75 25.7778 22.75C27.25 22.75 28.4444 23.9258 28.4444 25.375Z" fill="#565956"/>
</svg>
