<svg width="17" height="14" viewBox="0 0 17 14" fill="none" xmlns="http://www.w3.org/2000/svg">
<path d="M13.9399 0.940072C13.9257 0.95388 13.9123 0.968576 13.8999 0.984073L6.95395 9.83407L2.76794 5.64607C2.48359 5.38111 2.1075 5.23687 1.7189 5.24372C1.3303 5.25058 0.959527 5.408 0.684701 5.68283C0.409875 5.95765 0.252451 6.32843 0.245595 6.71703C0.238739 7.10563 0.382984 7.48172 0.647944 7.76607L5.93994 13.0601C6.08251 13.2024 6.25227 13.3145 6.43911 13.3898C6.62595 13.4651 6.82604 13.5019 7.02744 13.4982C7.22883 13.4945 7.42742 13.4502 7.61134 13.3681C7.79526 13.2859 7.96075 13.1676 8.09794 13.0201L16.0819 3.04007C16.3538 2.75473 16.5024 2.37387 16.4957 1.97981C16.489 1.58575 16.3275 1.21017 16.0461 0.934261C15.7646 0.658353 15.3859 0.504289 14.9918 0.505377C14.5977 0.506464 14.2198 0.662615 13.9399 0.940072Z" fill="#669988"/>
</svg>
