<svg width="20" height="16" viewBox="0 0 20 16" fill="none" xmlns="http://www.w3.org/2000/svg">
<path d="M0 8C0 7.73478 0.105357 7.48043 0.292893 7.29289C0.48043 7.10536 0.734784 7 1 7H11.586L9.293 4.707C9.11084 4.5184 9.01005 4.2658 9.01233 4.0036C9.0146 3.7414 9.11977 3.49059 9.30518 3.30518C9.49059 3.11977 9.7414 3.0146 10.0036 3.01233C10.2658 3.01005 10.5184 3.11084 10.707 3.293L14.707 7.293C14.8945 7.48053 14.9998 7.73484 14.9998 8C14.9998 8.26516 14.8945 8.51947 14.707 8.707L10.707 12.707C10.6148 12.8025 10.5044 12.8787 10.3824 12.9311C10.2604 12.9835 10.1292 13.0111 9.9964 13.0123C9.86362 13.0134 9.73194 12.9881 9.60905 12.9378C9.48615 12.8875 9.3745 12.8133 9.28061 12.7194C9.18671 12.6255 9.11246 12.5139 9.06218 12.391C9.0119 12.2681 8.9866 12.1364 8.98775 12.0036C8.9889 11.8708 9.01649 11.7396 9.0689 11.6176C9.12131 11.4956 9.19749 11.3852 9.293 11.293L11.586 9H1C0.734784 9 0.48043 8.89464 0.292893 8.70711C0.105357 8.51957 0 8.26522 0 8ZM15 15C15 14.7348 15.1054 14.4804 15.2929 14.2929C15.4804 14.1054 15.7348 14 16 14L18 14V2H16C15.7348 2 15.4804 1.89464 15.2929 1.70711C15.1054 1.51957 15 1.26522 15 1C15 0.734783 15.1054 0.480429 15.2929 0.292892C15.4804 0.105356 15.7348 0 16 0H18C18.5304 0 19.0391 0.210714 19.4142 0.585787C19.7893 0.960859 20 1.46957 20 2V14C20 14.5304 19.7893 15.0391 19.4142 15.4142C19.0391 15.7893 18.5304 16 18 16H16C15.7348 16 15.4804 15.8946 15.2929 15.7071C15.1054 15.5196 15 15.2652 15 15Z" fill="#565956"/>
</svg>
