<svg fill="none" height="26" viewBox="0 0 26 26" width="26" xmlns="http://www.w3.org/2000/svg"><path d="m17.3199 13.0002c0-2.4-1.9199-4.32-4.3199-4.32s-4.32005 1.92-4.32005 4.32 1.92005 4.32 4.32005 4.32 4.3199-1.92 4.3199-4.32zm2.2401 0c0 3.68-2.88 6.56-6.56 6.56-3.68005 0-6.56005-2.88-6.56005-6.56 0-3.68001 2.88-6.56 6.56005-6.56 3.68 0 6.56 2.87999 6.56 6.56zm1.7599-6.88001c0 .96-.64 1.6-1.6 1.6s-1.6-.64-1.6-1.6.64-1.6 1.6-1.6 1.6.8 1.6 1.6zm-8.3199-3.67999c-1.92 0-5.92005-.16-7.52005.48-1.12.48-2.08 1.44-2.4 2.56-.64 1.6-.48 5.6-.48 7.52s-.16 5.92.48 7.52c.32 1.12 1.28 2.08 2.4 2.4 1.6.64 5.76005.48 7.52005.48s5.9199.16 7.5199-.48c1.12-.48 1.9201-1.28 2.4001-2.4.64-1.76.4799-5.76.4799-7.52s.1601-5.92-.4799-7.52c-.32-1.12-1.2801-2.08-2.4001-2.4-1.6-.8-5.5999-.64-7.5199-.64zm12.7999 10.56v5.28c0 1.92-.6399 3.84-2.0799 5.44-1.44 1.44-3.36 2.08-5.44 2.08h-10.56005c-1.92 0-3.84-.64-5.44-2.08-1.279999-1.44-2.079999-3.36-2.079999-5.44v-5.28-5.28001c0-2.08.8-4 2.079999-5.43999 1.6-1.28 3.52-2.080005 5.44-2.080005h10.56005c1.92 0 3.84.64 5.44 2.080005 1.28 1.43999 2.0799 3.35999 2.0799 5.43999z" fill="#fff"/></svg>