<svg fill="none" height="22" viewBox="0 0 27 22" width="27" xmlns="http://www.w3.org/2000/svg"><path d="m26.9999 2.94689c-.9562.4125-1.9968.70938-3.0687.825 1.1128-.66114 1.9462-1.70563 2.3437-2.937502-1.0442.621212-2.1882 1.056822-3.3812 1.287502-.4986-.53304-1.1017-.95769-1.7716-1.247478-.6699-.289789-1.3923-.438511-2.1222-.436899-2.9531 0-5.3281 2.393747-5.3281 5.331257 0 .4125.05.825.1313 1.22187-4.42191-.23125-8.36565-2.34375-10.98753-5.57813-.47773.81599-.72808 1.74509-.725 2.69063 0 1.85.94063 3.48125 2.375 4.44063-.8453-.03329-1.6708-.26563-2.40937-.67813v.06563c0 2.59063 1.83125 4.73753 4.27187 5.23123-.45825.1191-.92966.18-1.40312.1813-.34688 0-.675-.0344-1.00625-.0813.675 2.1125 2.64062 3.6469 4.98124 3.6969-1.83124 1.4344-4.12499 2.2781-6.61561 2.2781-.44688 0-.85938-.0156-1.287504-.0656 2.362494 1.5156 5.165624 2.3906 8.184364 2.3906 9.80001 0 15.16251-8.1187 15.16251-15.16561 0-.23125 0-.4625-.0156-.69375 1.0375-.75937 1.9468-1.7 2.6718-2.75625z" fill="#fff"/></svg>